<?xml version="1.0" encoding="UTF-8" standalone="no"?>
<!-- Created with Inkscape (http://www.inkscape.org/) -->

<svg
   width="512"
   height="512"
   viewBox="0 0 512 512"
   version="1.1"
   id="svg1"
   xml:space="preserve"
   inkscape:version="1.3.2 (091e20e, 2023-11-25, custom)"
   sodipodi:docname="Clean, Semantic, Maintainable.svg"
   inkscape:export-filename="..\Dist\Clean, Semantic, Maintainable.svg"
   inkscape:export-xdpi="300"
   inkscape:export-ydpi="300"
   xmlns:inkscape="http://www.inkscape.org/namespaces/inkscape"
   xmlns:sodipodi="http://sodipodi.sourceforge.net/DTD/sodipodi-0.dtd"
   xmlns="http://www.w3.org/2000/svg"
   xmlns:svg="http://www.w3.org/2000/svg"><sodipodi:namedview
     id="namedview1"
     pagecolor="#505050"
     bordercolor="#eeeeee"
     borderopacity="1"
     inkscape:showpageshadow="0"
     inkscape:pageopacity="0"
     inkscape:pagecheckerboard="0"
     inkscape:deskcolor="#505050"
     inkscape:document-units="px"
     inkscape:zoom="0.80240837"
     inkscape:cx="299.09957"
     inkscape:cy="196.90722"
     inkscape:window-width="1366"
     inkscape:window-height="715"
     inkscape:window-x="-8"
     inkscape:window-y="-8"
     inkscape:window-maximized="1"
     inkscape:current-layer="svg1" /><defs
     id="defs1" /><g
     id="g23"
     inkscape:label="Clean, Semantic, Maintainable"
     transform="matrix(2.272812,0,0,2.272812,-433.73194,-239.631)"><g
       style="display:inline;fill:#000000"
       id="g16"
       transform="matrix(9.9970825,0,0,9.9970825,210.56603,95.41677)"
       inkscape:label="Source File"><path
         d="M 4.0000328,1.9999221 A 2,2 0 0 0 2.0000352,3.9999197 V 20.000096 a 2,2 0 0 0 1.9999976,1.999997 H 10.810027 A 6,6 0 0 1 10.064302,19.66406 H 4.1446062 c -1.600461,0 -1.600461,-2.4007 0,-2.4007 H 10.27999 a 6,6 0 0 1 0.495066,-1.200351 H 4.1446062 c -1.600461,0 -1.600461,-2.4007 0,-2.4007 h 9.1688858 a 6,6 0 0 1 1.496531,-0.542346 5.91,5.91 0 0 1 3.170065,0.22995 V 5.0000161 A 1,1 0 0 0 17.689964,4.3000072 L 15.689967,2.3000097 A 1,1 0 0 0 14.999922,1.9999221 Z"
         style="fill:#333333"
         id="path19" /><path
         d="M 10.27999,17.26336 H 4.1446062 c -1.600461,0 -1.600461,2.4007 0,2.4007 h 5.9196958 a 6,6 0 0 1 0.215688,-2.4007 z"
         style="display:inline;fill:#20a2ce;stroke-width:0.0360108"
         id="path21" /><path
         d="M 13.313492,13.662309 H 4.1446062 c -1.600461,0 -1.600461,2.4007 0,2.4007 h 6.6304498 a 6,6 0 0 1 2.538436,-2.4007 z"
         style="display:inline;fill:#20a2ce;stroke-width:0.0360108"
         id="path20" /><path
         d="m 14.999922,1.9999221 v 1.9999976 c 0,0.5522841 0.447812,1.0000964 1.000096,1.0000964 h 1.999998 c 0.0042,-0.2643767 -0.09643,-0.5196308 -0.279965,-0.7099727 L 15.720054,2.2900458 C 15.528891,2.1003779 15.269178,1.9957011 14.999922,1.9999221 Z"
         style="fill:#20a2ce"
         id="path23" /><path
         d="m 14.947758,11.261607 c 0,-0.662934 -0.53742,-1.200349 -1.200351,-1.200349 H 4.1446029 c -1.6004626,0 -1.6004626,2.4007 0,2.4007 h 9.6028041 c 0.662931,0 1.200351,-0.537415 1.200351,-1.200351 z"
         style="fill:#20a2ce;fill-opacity:1;stroke-width:0.0360108"
         id="path17" /><path
         d="m 14.947758,7.6605588 c 0,-0.6629361 -0.53742,-1.200351 -1.200351,-1.200351 H 4.1446029 c -1.6004626,0 -1.6004626,2.4007026 0,2.4007026 h 9.6028041 c 0.662931,0 1.200351,-0.5374152 1.200351,-1.2003516 z"
         style="fill:#20a2ce;fill-opacity:1;stroke-width:0.0360108"
         id="path18" /><g
         id="g10"
         style="display:inline"
         inkscape:label="Maintainable"
         transform="matrix(0.10002918,0,0,0.10002918,-22.123032,-13.696628)">
	<path
   style="fill:#20a2ce;fill-opacity:1;stroke-width:1.17142"
   d="m 426.75137,329.7305 v -14.9953 l -15.27668,-1.49962 c -0.84338,-3.18652 -2.24928,-6.18568 -3.93619,-8.99724 l 9.84078,-11.99638 -10.59053,-10.59053 -12.46495,10.21574 c -2.62423,-1.4059 -5.43576,-2.43683 -8.34127,-3.09292 l -1.68702,-16.49491 h -7.49751 -0.0932 -7.49751 l -1.68702,16.49491 c -2.99912,0.65609 -5.81076,1.68702 -8.34127,3.09292 l -12.46495,-10.21574 -10.59053,10.49686 9.84078,11.99633 c -1.68691,2.71784 -2.99908,5.81076 -3.93619,8.99712 l -15.27668,1.49963 v 14.99539 l 15.27668,1.49963 c 0.84338,3.18637 2.15545,6.18546 3.93619,8.99714 l -9.84078,11.99632 10.59053,10.59057 12.46495,-10.21573 c 2.62423,1.4059 5.43576,2.43684 8.34127,3.09291 l 1.68702,16.49493 h 7.49751 0.0932 7.49751 l 1.68702,-16.49493 c 2.99912,-0.65607 5.81076,-1.68701 8.34127,-3.09291 l 12.46495,10.21573 10.59053,-10.59057 -9.84078,-11.99632 c 1.68691,-2.71786 2.99908,-5.81077 3.93619,-8.99714 z m -50.04721,14.99542 c -12.4649,0 -22.5868,-10.122 -22.5868,-22.58682 0,-12.46496 10.1219,-22.58686 22.5868,-22.58686 12.465,0 22.58691,10.1219 22.58691,22.58686 0,12.55862 -10.12191,22.58682 -22.58691,22.58682 z"
   id="path9"
   inkscape:label="Maintainable" />
	<path
   id="path22"
   d="m 17.480443,19.655345 c -0.107786,6.31e-4 -0.211388,-0.04169 -0.287914,-0.117597 -0.159936,-0.15863 -0.159936,-0.417208 0,-0.575837 l 0.527173,-0.523117 -0.527173,-0.523122 c -0.383891,-0.38389 0.191945,-0.959725 0.575834,-0.575835 l 0.811037,0.811037 c 0.159937,0.158629 0.159937,0.417207 0,0.575834 l -0.811037,0.81104 c -0.07653,0.07591 -0.180128,0.118224 -0.28792,0.117597 z m -1.334156,-0.117597 c 0.159935,-0.15863 0.159935,-0.417208 0,-0.575837 l -0.527174,-0.523117 0.527174,-0.523122 c 0.383895,-0.38389 -0.191946,-0.959725 -0.575835,-0.575835 l -0.811039,0.811037 c -0.159926,0.158629 -0.159926,0.417207 0,0.575834 l 0.811039,0.81104 c 0.158628,0.159935 0.417206,0.159935 0.575835,0 z"
   style="display:inline;fill:#20a2ce;fill-opacity:1;stroke-width:0.40552"
   sodipodi:nodetypes="cccccsccccccccscccc"
   transform="matrix(9.9970829,0,0,9.9970829,210.56604,138.92666)" />
</g></g><g
       id="g15"
       transform="matrix(40,0,0,40,-460.36119,-106.80457)"
       inkscape:label="Analyzer"
       style="display:inline"><g
         id="g1"
         inkscape:label="Magnifier Glass"
         transform="matrix(-1,0,0,1,37.81206,0)"><path
           d="M 21.134163,9.3876557 C 20.935729,9.1892222 20.712492,9.0403966 20.489252,8.8915711 20.464452,8.8667711 20.216408,8.6187257 20.11719,8.5443119 20.712492,7.5521437 19.844342,6.2623237 18.703348,6.4359533 c -1.091387,0.1736296 -1.562667,1.5378623 -0.793736,2.3315978 0.421672,0.4712792 1.140996,0.5704962 1.711493,0.2728455 0.148832,0.1488256 0.272847,0.2728478 0.396869,0.4216732 0.173629,0.223237 0.29765,0.4464763 0.520888,0.6201042 0.148832,0.124023 0.347259,0.297651 0.570498,0.322456 0.272846,0.02479 0.42167,-0.148825 0.42167,-0.396867 C 21.506246,9.7845236 21.282988,9.5364813 21.134163,9.3876557 Z M 18.926587,8.8171596 c -0.545693,0 -0.99217,-0.4464763 -0.99217,-0.9921694 0,-0.5456932 0.446477,-0.9921692 0.99217,-0.9921692 0.545693,0 0.992169,0.446476 0.992169,0.9921692 0,0.5456931 -0.446476,0.9921694 -0.992169,0.9921694 z"
           id="path1-6"
           style="display:inline;fill:#ffffff;fill-opacity:1;stroke-width:0.248042"
           sodipodi:nodetypes="scccccccccssssss" /></g><text
         xml:space="preserve"
         style="font-style:italic;font-variant:normal;font-weight:bold;font-stretch:normal;font-size:0.410651px;font-family:Consolas;-inkscape-font-specification:'Consolas Bold Italic';fill:#ffffff;fill-opacity:1;stroke-width:0.025"
         x="17.984983"
         y="7.976193"
         id="text15"><tspan
           sodipodi:role="line"
           id="tspan15"
           style="font-style:italic;font-variant:normal;font-weight:bold;font-stretch:normal;font-size:0.410651px;font-family:Consolas;-inkscape-font-specification:'Consolas Bold Italic';stroke-width:0.025"
           x="17.984983"
           y="7.976193">&lt;Clean/&gt;</tspan></text></g></g><g
     id="g25"
     transform="matrix(1.186544,1.176671,-1.176671,1.186544,412.99584,33.928915)"
     inkscape:label="Infinity"><path
       d="M 18.6,6.62 A 5.38,5.38 0 1 1 14.78,15.8 L 12,13.34 9.17,15.85 A 5.33,5.33 0 0 1 5.4,17.38 5.38,5.38 0 1 1 9.22,8.2 L 12,10.66 14.83,8.15 A 5.33,5.33 0 0 1 18.6,6.62 M 7.8,14.39 10.5,12 7.84,9.65 a 3.39,3.39 0 1 0 -2.44,5.73 3.36,3.36 0 0 0 2.4,-1 M 16.2,9.6 13.5,12 16.16,14.35 A 3.39,3.39 0 1 0 18.6,8.62 3.36,3.36 0 0 0 16.2,9.61 Z"
       id="path24"
       style="fill:#000000;fill-opacity:0.4" /></g></svg>
