<?xml version="1.0" encoding="UTF-8" standalone="no"?>
<!-- Created with Inkscape (http://www.inkscape.org/) -->

<svg
   width="512"
   height="322.86432"
   viewBox="0 0 512 322.86432"
   version="1.1"
   id="svg1"
   xml:space="preserve"
   inkscape:version="1.3.2 (091e20e, 2023-11-25, custom)"
   sodipodi:docname="High Performance App.svg"
   xmlns:inkscape="http://www.inkscape.org/namespaces/inkscape"
   xmlns:sodipodi="http://sodipodi.sourceforge.net/DTD/sodipodi-0.dtd"
   xmlns="http://www.w3.org/2000/svg"
   xmlns:svg="http://www.w3.org/2000/svg"><sodipodi:namedview
     id="namedview1"
     pagecolor="#505050"
     bordercolor="#eeeeee"
     borderopacity="1"
     inkscape:showpageshadow="0"
     inkscape:pageopacity="0"
     inkscape:pagecheckerboard="0"
     inkscape:deskcolor="#505050"
     inkscape:document-units="px"
     inkscape:zoom="0.74642639"
     inkscape:cx="213.01498"
     inkscape:cy="202.29724"
     inkscape:window-width="1366"
     inkscape:window-height="715"
     inkscape:window-x="-8"
     inkscape:window-y="-8"
     inkscape:window-maximized="1"
     inkscape:current-layer="g1" /><defs
     id="defs1" /><g
     inkscape:label="Layer 1"
     inkscape:groupmode="layer"
     id="layer1"
     transform="translate(-2.3759999e-6,-94.567848)"><g
       id="g2"
       inkscape:label="Smartphone Frame"
       style="display:none"><path
         d="M 384.08,512 H 128.24 c -8.48,0 -15.36,-6.88 -15.36,-15.36 V 15.68 c 0,-8.48 6.88,-15.36 15.36,-15.36 h 255.84 c 8.48,0 15.36,6.88 15.36,15.36 v 480.96 c 0,8.48 -6.96,15.36 -15.36,15.36 z"
         id="path1"
         style="display:inline"
         transform="translate(-0.50592885)" /><path
         style="display:inline;opacity:0.2;fill:#ffffff;enable-background:new"
         d="M 399.12,56.48 V 15.36 C 399.12,6.88 392.24,0 383.76,0 H 127.92 c -8.48,0 -15.36,6.88 -15.36,15.36 v 163.92 z"
         id="path17"
         transform="translate(-0.50592885)" /><path
         style="fill:#999999"
         d="m 286.56,25.92 h -61.44 c -2.8,0 -5.12,-2.32 -5.12,-5.12 v 0 c 0,-2.8 2.32,-5.12 5.12,-5.12 h 61.44 c 2.8,0 5.12,2.32 5.12,5.12 v 0 c 0,2.8 -2.32,5.12 -5.12,5.12 z"
         id="path2"
         transform="translate(-0.50592885)" /><path
         style="display:inline;fill:#999999"
         d="m 286.8,481.28 h -61.44 c -2.8,0 -5.12,-2.32 -5.12,-5.12 v 0 c 0,-2.8 2.32,-5.12 5.12,-5.12 h 61.44 c 2.8,0 5.12,2.32 5.12,5.12 v 0 c 0,2.8 -2.24,5.12 -5.12,5.12 z"
         id="path3"
         transform="translate(-0.50592885)" /></g><g
       id="g1"
       transform="matrix(2.7813947,0,0,2.7813947,-456.37124,-348.00767)"
       inkscape:label="SmartphonePanel"
       style="display:inline"><g
         id="g5"
         inkscape:label="UploadDownload"
         style="display:none">
	
	
<g
   id="g9"
   inkscape:label="Download"><polygon
     style="fill:#ffffff"
     points="329.84,383.36 308,383.36 266.4,383.36 298.08,428.4 "
     id="polygon5" /><rect
     x="287.20001"
     y="334.72"
     style="display:inline;fill:#ffffff"
     width="20.799999"
     height="48.639999"
     id="rect5" /></g><g
   id="g8"
   inkscape:label="Upload"><rect
     x="204.32001"
     y="347.51999"
     style="display:inline;fill:#20a2ce;fill-opacity:1"
     width="20.799999"
     height="48.639999"
     id="rect4" /><polygon
     style="display:inline;fill:#20a2ce;fill-opacity:1"
     points="245.92,347.52 214.24,302.48 182.48,347.52 204.32,347.52 "
     id="polygon4" /></g></g><path
         style="fill:#444444;fill-opacity:1"
         d="m 314.16,207.2 h -2.72 c -2.72,-11.44 -12.96,-20 -25.28,-20 -2.96,0 -5.84,0.56 -8.56,1.44 -6,-17.12 -22.32,-29.52 -41.52,-29.52 -24.32,0 -44,19.68 -44,44 0,1.52 0.08,3.04 0.24,4.56 -16,2.8 -28.24,16.72 -28.24,33.52 0,18.72 15.28,34 34,34 h 116.08 c 18.72,0 34,-15.28 34,-34 0.08,-18.64 -15.28,-34 -34,-34 z"
         id="path4"
         inkscape:label="Cloud" /><g
         id="g3"
         inkscape:label="Signal"
         style="display:none"><rect
           x="307.35999"
           y="152.08"
           style="fill:#ffffff"
           width="10.24"
           height="10.24"
           id="rect6" /><rect
           x="307.35999"
           y="131.60001"
           style="fill:#ffffff"
           width="10.24"
           height="10.24"
           id="rect7" /><rect
           x="307.35999"
           y="111.2"
           style="fill:#ffffff"
           width="10.24"
           height="10.24"
           id="rect8" /><rect
           x="307.35999"
           y="90.720001"
           style="fill:#ffffff"
           width="10.24"
           height="10.24"
           id="rect9" /><rect
           x="307.35999"
           y="70.239998"
           style="fill:#ffffff"
           width="10.24"
           height="10.24"
           id="rect10" /><rect
           x="245.92"
           y="111.2"
           style="fill:#ffffff"
           width="10.24"
           height="10.24"
           id="rect11" /><rect
           x="245.92"
           y="90.720001"
           style="fill:#ffffff"
           width="10.24"
           height="10.24"
           id="rect12" /><rect
           x="245.92"
           y="70.239998"
           style="fill:#ffffff"
           width="10.24"
           height="10.24"
           id="rect13" /><rect
           x="184.48"
           y="131.60001"
           style="fill:#ffffff"
           width="10.24"
           height="10.24"
           id="rect14" /><rect
           x="184.48"
           y="111.2"
           style="fill:#ffffff"
           width="10.24"
           height="10.24"
           id="rect15" /><rect
           x="184.48"
           y="90.720001"
           style="fill:#ffffff"
           width="10.24"
           height="10.24"
           id="rect16" /><rect
           x="184.48"
           y="70.239998"
           style="fill:#ffffff"
           width="10.24"
           height="10.24"
           id="rect17" /></g><g
         style="fill:#20a2ce;fill-opacity:1"
         id="g4"
         transform="matrix(0.14052679,0,0,0.14052679,204.13983,202.55923)"
         inkscape:label="Dash"><path
           d="m 374.596,279.418 -43.289,-16.792 100.999,-51.819 c 13.264,-8.654 16.247,-25.915 6.675,-38.527 l -28.286,-33.201 c -3.921,-7.841 -11.943,-13.283 -21.314,-13.283 h -229.5 c -13.206,0 -23.906,10.701 -23.906,23.906 0,13.206 10.701,23.906 23.906,23.906 H 319.565 L 212.961,225.61 c -0.163,0.077 -0.334,0.172 -0.507,0.239 l -0.755,0.373 0.048,0.029 c -0.125,0.057 -0.229,0.144 -0.344,0.2 -0.765,0.393 -1.511,0.804 -2.238,1.263 -0.812,0.517 -1.587,1.062 -2.352,1.664 -0.708,0.555 -1.377,1.109 -2.037,1.73 -0.698,0.66 -1.358,1.367 -1.989,2.094 -0.593,0.688 -1.167,1.396 -1.712,2.161 -0.564,0.794 -1.061,1.636 -1.549,2.496 -0.277,0.488 -0.622,0.899 -0.88,1.396 L 171.861,293.618 65.89,341.967 c -14.42,6.58 -20.77,23.6 -14.19,38.012 4.819,10.557 15.233,16.791 26.115,16.791 3.978,0 8.032,-0.842 11.886,-2.592 l 115.276,-52.594 c 6.024,-2.744 10.901,-7.486 13.827,-13.416 l 19.699,-39.971 90.528,35.113 -31.556,104.031 c -4.59,15.166 3.969,31.182 19.125,35.781 2.782,0.842 5.584,1.244 8.338,1.244 12.308,0 23.687,-7.984 27.445,-20.369 l 39.272,-129.484 c 4.37,-14.382 -3.069,-29.663 -17.059,-35.095 z"
           id="path3-4"
           style="fill:#20a2ce;fill-opacity:1" /><path
           d="m 421.777,102.4756 c 0,24.86574 20.22295,45.09748 45.10725,45.09748 24.87453,0 45.03204,-20.23174 45.03204,-45.09748 0,-24.883328 -20.15751,-45.0506 -45.03204,-45.0506 -24.8843,0 -45.10725,20.167272 -45.10725,45.0506 z"
           id="path4-2"
           style="fill:#20a2ce;fill-opacity:1;stroke-width:0.976813"
           inkscape:label="Head" /><path
           d="m 320.81208,56.842 c 0,-5.288 -4.274,-9.562 -9.562,-9.562 h -145.829 c -5.288,0 -9.562,4.274 -9.562,9.562 0,5.288 4.274,9.562 9.562,9.562 h 145.828 c 5.279,0 9.563,-4.274 9.563,-9.562 z"
           id="path5"
           style="fill:#20a2ce;fill-opacity:1" /><path
           d="m 105.65608,80.844 c -5.288,0 -9.561998,4.274 -9.561998,9.562 0,5.288 4.273998,9.562 9.561998,9.562 h 145.828 c 5.288,0 9.562,-4.274 9.562,-9.562 0,-5.288 -4.274,-9.562 -9.562,-9.562 z"
           id="path6"
           style="fill:#20a2ce;fill-opacity:1" /><path
           d="m 540.314,231.262 h -91.542 c -5.288,0 -9.562,4.274 -9.562,9.562 0,5.288 4.274,9.562 9.562,9.562 h 91.542 c 5.288,0 9.562,-4.274 9.562,-9.562 10e-4,-5.279 -4.273,-9.562 -9.562,-9.562 z"
           id="path7"
           style="fill:#20a2ce;fill-opacity:1" /><path
           d="m 502.801,264.827 h -91.542 c -5.288,0 -9.562,4.274 -9.562,9.562 0,5.289 4.274,9.562 9.562,9.562 h 91.542 c 5.288,0 9.562,-4.273 9.562,-9.562 0,-5.288 -4.274,-9.562 -9.562,-9.562 z"
           id="path8"
           style="fill:#20a2ce;fill-opacity:1" /><path
           class="st4"
           d="m 286.02063,64.016261 c 0.21803,14.313449 0.98335,24.475069 0.32802,43.159229 -19.12113,-8.63187 -45.89077,-17.91934 -74.40864,-29.28269 -6.33731,-2.513188 -11.36349,5.57236 -6.33731,10.16149 35.51078,32.34213 61.51554,54.63191 103.90995,90.36126 4.04281,3.38721 10.16163,0.43672 10.05235,-4.80755 -0.21803,-20.21391 -0.98343,-28.19018 0.10866,-48.40403 0,-0.98336 40.42755,6.33737 69.60102,11.8006 6.55586,1.20184 10.05236,-7.43002 4.47986,-11.03572 -28.40867,-19.01185 -74.08088,-49.824361 -98.22825,-66.978761 -3.93347,-2.9501 -9.61524,0 -9.50603,5.026172 z"
           id="path1-0"
           inkscape:label="Lightning"
           style="display:none;stroke:#ffffff;stroke-width:7.46502;stroke-dasharray:none;stroke-opacity:1" /><path
           d="m 380.52164,854.40821 c 1.90591,0 3.80141,0.0625 5.68946,0.16366 L 565.71771,748.66075 c 4.39355,-2.59627 9.9714,-1.94608 13.6523,1.58454 3.68385,3.52763 4.56765,9.07427 2.1663,13.57049 l -97.9215,183.53117 c 0.36006,3.5351 0.55199,7.1044 0.55199,10.70495 0,27.6855 -10.78081,53.7121 -30.35618,73.2875 -19.57685,19.5769 -45.60494,30.3577 -73.29046,30.3577 -27.68554,0 -53.71214,-10.7838 -73.2875,-30.3577 -19.57686,-19.5754 -30.35618,-45.602 -30.35618,-73.2875 0,-27.68554 10.78081,-53.71214 30.35618,-73.28751 19.57536,-19.57537 45.60494,-30.35618 73.28898,-30.35618 z"
           id="path7-9"
           style="fill:#20a2ce;fill-opacity:1;stroke-width:1.48783"
           transform="matrix(0.32730206,0,0,0.32730206,353.84338,-223.97895)" /><g
           style="fill:#20a2ce;fill-opacity:1"
           id="g6"
           transform="matrix(0.41972152,-0.25469367,0.25469367,0.41972152,256.58749,-12.607732)"
           inkscape:label="SpeedMeter"><path
             d="m 175.205,239.62 c 0.127,-1.965 -0.533,-3.902 -1.833,-5.381 l -58.84,-66.941 c -1.3,-1.479 -3.135,-2.381 -5.102,-2.508 -1.975,-0.126 -3.902,0.533 -5.381,1.833 -27.037,23.766 -49.479,51.794 -66.706,83.305 -0.944,1.729 -1.165,3.762 -0.611,5.651 0.554,1.89 1.836,3.483 3.565,4.427 l 78.205,42.748 c 1.131,0.619 2.352,0.912 3.557,0.912 2.627,0 5.174,-1.398 6.523,-3.866 11.386,-20.828 26.229,-39.359 44.114,-55.08 1.482,-1.298 2.384,-3.133 2.509,-5.1 z"
             id="path1-5"
             style="fill:#20a2ce;fill-opacity:1" /><path
             d="m 201.462,214.829 c 1.334,2.515 3.907,3.948 6.568,3.948 1.174,0 2.365,-0.279 3.473,-0.867 20.962,-11.117 43.512,-18.371 67.025,-21.561 4.064,-0.551 6.913,-4.293 6.362,-8.358 L 272.911,99.675 c -0.551,-4.064 -4.304,-6.909 -8.358,-6.362 -35.708,4.843 -69.949,15.857 -101.772,32.736 -3.623,1.922 -5.002,6.416 -3.082,10.041 z"
             id="path2-5"
             style="fill:#20a2ce;fill-opacity:1" /><path
             d="M 105.785,334.345 19.768,311.007 c -1.901,-0.514 -3.929,-0.255 -5.638,0.725 -1.709,0.98 -2.958,2.598 -3.475,4.499 C 3.586,342.295 0,369.309 0,396.523 c 0,4.657 0.111,9.329 0.342,14.284 0.185,3.981 3.468,7.083 7.414,7.083 0.116,0 0.234,-0.002 0.35,-0.008 l 89.031,-4.113 c 1.967,-0.09 3.82,-0.96 5.145,-2.415 1.327,-1.455 2.022,-3.38 1.93,-5.347 -0.155,-3.341 -0.23,-6.444 -0.23,-9.484 0,-18.02 2.365,-35.873 7.029,-53.066 1.071,-3.958 -1.268,-8.037 -5.226,-9.112 z"
             id="path3-7"
             style="fill:#20a2ce;fill-opacity:1" /><path
             d="M 438.731,120.745 C 406.32,105.12 371.691,95.437 335.806,91.959 c -1.972,-0.198 -3.918,0.408 -5.439,1.659 -1.521,1.252 -2.481,3.056 -2.671,5.018 l -8.593,88.712 c -0.396,4.082 2.594,7.713 6.677,8.108 23.652,2.291 46.463,8.669 67.8,18.954 1.015,0.49 2.118,0.738 3.225,0.738 0.826,0 1.654,-0.139 2.45,-0.416 1.859,-0.649 3.385,-2.012 4.24,-3.786 l 38.7,-80.287 c 1.783,-3.694 0.232,-8.134 -3.464,-9.914 z"
             id="path4-0"
             style="fill:#20a2ce;fill-opacity:1" /><path
             d="m 569.642,245.337 c 0.48,-1.911 0.184,-3.932 -0.828,-5.624 -18.432,-30.835 -41.933,-57.983 -69.848,-80.686 -1.529,-1.242 -3.48,-1.824 -5.447,-1.627 -1.959,0.203 -3.758,1.174 -5,2.702 l -56.237,69.144 c -1.242,1.529 -1.828,3.488 -1.625,5.447 0.201,1.959 1.173,3.758 2.702,5.002 18.47,15.019 34.015,32.975 46.205,53.369 1.392,2.326 3.855,3.618 6.383,3.618 1.297,0 2.61,-0.34 3.803,-1.054 L 566.251,249.9 c 1.689,-1.011 2.909,-2.652 3.391,-4.563 z"
             id="path5-9"
             style="fill:#20a2ce;fill-opacity:1" /><path
             d="m 598.044,304.939 c -1.228,-3.915 -5.397,-6.096 -9.308,-4.867 l -85.048,26.648 c -3.915,1.226 -6.093,5.393 -4.867,9.306 6.104,19.486 9.199,39.839 9.199,60.494 0,3.041 -0.076,6.144 -0.23,9.484 -0.092,1.967 0.602,3.892 1.93,5.347 1.327,1.456 3.178,2.325 5.145,2.415 l 89.031,4.113 c 0.118,0.005 0.234,0.008 0.35,0.008 3.944,0 7.228,-3.103 7.414,-7.083 0.229,-4.955 0.342,-9.627 0.342,-14.284 -0.002,-31.214 -4.696,-62.026 -13.958,-91.581 z"
             id="path6-9"
             style="fill:#20a2ce;fill-opacity:1" /></g></g><g
         style="fill:#20a2ce;fill-opacity:1"
         id="g7"
         transform="matrix(0,-0.17401785,0.17401785,0,185.57741,245.99895)"
         inkscape:label="WifiSignal"><path
           d="m 171.40967,157.43848 a 12,12 0 1 1 -16.69043,17.24609 38.77834,38.77834 0 0 0 -53.4541,0 12,12 0 0 1 -16.69043,-17.24609 62.77622,62.77622 0 0 1 86.835,0 z M 127.99219,92.00293 a 109.717,109.717 0 0 0 -77.42871,31.5625 12.00016,12.00016 0 0 0 16.83007,17.11035 86.75415,86.75415 0 0 1 121.19727,0 12.000163,12.000163 0 1 0 16.83008,-17.11035 109.717,109.717 0 0 0 -77.42871,-31.5625 z m 111.36767,-2.354 a 158.68112,158.68112 0 0 0 -222.73535,0 11.99993,11.99993 0 1 0 16.87891,17.06152 134.68184,134.68184 0 0 1 188.97754,0 11.999924,11.999924 0 1 0 16.8789,-17.06152 z M 128,184 a 16,16 0 1 0 16,16 16.01833,16.01833 0 0 0 -16,-16 z"
           id="path1-1"
           style="fill:#20a2ce;fill-opacity:1" /></g></g></g><style
     type="text/css"
     id="style1">
	.st0{display:none;}
	.st1{display:inline;opacity:0.93;}
	.st2{display:inline;}
	.st3{fill:none;stroke:#000000;stroke-width:15;stroke-linecap:round;stroke-linejoin:round;stroke-miterlimit:10;}
	.st4{display:inline;fill:none;stroke:#000000;stroke-width:15;stroke-linecap:round;stroke-linejoin:round;stroke-miterlimit:10;}
	.st5{fill:#222222;}
	.st6{fill:#DDEDE7;}
	.st7{fill:#1A1D3F;}
	.st8{fill:#ED644E;}
	.st9{fill:#E9B44D;}
	.st10{fill:#3DC5A1;}
	.st11{fill:#494EDF;}
</style><style
     type="text/css"
     id="style1-6">
<![CDATA[
	.st0{fill:#000000;}
]]>
</style><style
     type="text/css"
     id="style1-1">
<![CDATA[
	.st0{fill:#000000;}
]]>
</style><style
     type="text/css"
     id="style1-62">
<![CDATA[
	.st0{fill:#000000;}
]]>
</style></svg>
