<?xml version="1.0" encoding="UTF-8" standalone="no"?>
<!-- Created with Inkscape (http://www.inkscape.org/) -->

<svg
   width="512"
   height="512"
   viewBox="0 0 512 512"
   version="1.1"
   id="svg1"
   xml:space="preserve"
   inkscape:version="1.3.2 (091e20e, 2023-11-25, custom)"
   sodipodi:docname="Optimized User Interface &amp; User Experience.svg"
   inkscape:export-filename="..\Dist\Optimized User Interface &amp; User Experience.svg"
   inkscape:export-xdpi="300"
   inkscape:export-ydpi="300"
   xmlns:inkscape="http://www.inkscape.org/namespaces/inkscape"
   xmlns:sodipodi="http://sodipodi.sourceforge.net/DTD/sodipodi-0.dtd"
   xmlns="http://www.w3.org/2000/svg"
   xmlns:svg="http://www.w3.org/2000/svg"><sodipodi:namedview
     id="namedview1"
     pagecolor="#505050"
     bordercolor="#eeeeee"
     borderopacity="1"
     inkscape:showpageshadow="0"
     inkscape:pageopacity="0"
     inkscape:pagecheckerboard="0"
     inkscape:deskcolor="#505050"
     inkscape:document-units="px"
     inkscape:zoom="0.47363281"
     inkscape:cx="256.52783"
     inkscape:cy="86.564948"
     inkscape:window-width="1366"
     inkscape:window-height="715"
     inkscape:window-x="-8"
     inkscape:window-y="-8"
     inkscape:window-maximized="1"
     inkscape:current-layer="svg1" /><defs
     id="defs1" /><g
     id="g3"
     inkscape:label="Optimized User Interface &amp; User Experience"><path
       fill-rule="evenodd"
       d="M -2.1692896e-6,78.812149 A 78.81215,78.81215 0 0 1 78.812148,-2.1692897e-6 H 306.49169 A 78.81215,78.81215 0 0 1 385.30384,78.812149 v 38.670491 a 24.869612,24.869612 0 0 1 2.73216,2.34685 l 23.36342,23.36343 a 24.519335,24.519335 0 0 1 -26.09558,40.24674 v 50.79005 a 24.869612,24.869612 0 0 1 2.73216,2.38188 l 61.29834,61.29834 a 24.520586,24.520586 0 0 1 -34.67735,34.67734 L 385.30384,303.1991 v 3.29259 c 0,14.60652 -3.95812,28.2673 -10.85856,39.96652 4.97392,0.77061 9.77271,3.08243 13.59072,6.90044 l 93.41866,93.41867 a 24.520586,24.520586 0 1 1 -34.67734,34.67735 L 353.35865,388.036 a 24.414253,24.414253 0 0 1 -6.90044,-13.62575 c -11.69923,6.93547 -25.36,10.89359 -39.96652,10.89359 h -3.25757 l 11.83934,11.83934 a 24.520589,24.520589 0 0 1 -34.67735,34.67735 L 236.61159,388.036 a 24.869612,24.869612 0 0 1 -2.38188,-2.73216 h -47.77768 l 61.47348,61.47348 a 24.520589,24.520589 0 1 1 -34.67735,34.67735 L 119.86452,388.036 a 24.869612,24.869612 0 0 1 -2.38188,-2.73216 H 78.812148 A 78.81215,78.81215 0 0 1 -2.1692896e-6,306.49169 Z M 78.812148,52.541428 A 26.270716,26.270716 0 0 0 52.541431,78.812149 V 306.49169 c 0,14.50144 11.769281,26.27072 26.270717,26.27072 H 306.49169 a 26.270716,26.270716 0 0 0 26.27072,-26.27072 V 78.812149 A 26.270716,26.270716 0 0 0 306.49169,52.541428 Z"
       clip-rule="evenodd"
       id="path1"
       style="fill:#000000;fill-opacity:1;stroke-width:49.9998" /><path
       d="m 367.61489,449.68461 a 24.520586,24.520586 0 0 0 -34.67734,34.67735 l 20.4211,20.45613 A 24.520589,24.520589 0 0 0 388.036,470.14074 Z M 502.47124,351.0118 a 24.520589,24.520589 0 0 0 -34.67735,34.67735 l 2.34685,2.34685 a 24.520589,24.520589 0 0 0 34.67735,-34.67735 z M 433.46682,199.83258 a 24.519335,24.519335 0 0 1 34.67735,0 l 29.17801,29.17801 a 24.520589,24.520589 0 0 1 -34.67735,34.67735 l -29.17801,-29.17801 a 24.519335,24.519335 0 0 1 0,-34.67735 z"
       id="path2"
       style="fill:#000000;fill-opacity:1;stroke-width:49.9998" /><rect
       style="fill:#20a2ce;fill-opacity:1;stroke:#000000;stroke-width:0.1"
       id="rect3"
       width="284.42789"
       height="283.41666"
       x="48.334499"
       y="52.541428"
       ry="20"
       rx="20" /><text
       xml:space="preserve"
       style="font-size:72px;font-family:Consolas;-inkscape-font-specification:Consolas;fill:#ffffff;fill-opacity:1;stroke:#000000;stroke-width:0.1"
       x="90.08947"
       y="215.30835"
       id="text1"><tspan
         sodipodi:role="line"
         id="tspan1"
         x="90.08947"
         y="215.30835"
         style="font-size:72px;fill:#ffffff;fill-opacity:1">UI/UX</tspan></text></g></svg>
