<?xml version="1.0" encoding="UTF-8" standalone="no"?>
<!-- Created with Inkscape (http://www.inkscape.org/) -->

<svg
   width="512"
   height="223.54028"
   viewBox="0 0 512 223.54028"
   version="1.1"
   id="svg1"
   xml:space="preserve"
   inkscape:version="1.3.2 (091e20e, 2023-11-25, custom)"
   sodipodi:docname="Responsive UI.svg"
   inkscape:export-filename="..\Dist\Responsive UI.svg"
   inkscape:export-xdpi="96"
   inkscape:export-ydpi="96"
   xmlns:inkscape="http://www.inkscape.org/namespaces/inkscape"
   xmlns:sodipodi="http://sodipodi.sourceforge.net/DTD/sodipodi-0.dtd"
   xmlns="http://www.w3.org/2000/svg"
   xmlns:svg="http://www.w3.org/2000/svg"><sodipodi:namedview
     id="namedview1"
     pagecolor="#505050"
     bordercolor="#eeeeee"
     borderopacity="1"
     inkscape:showpageshadow="0"
     inkscape:pageopacity="0"
     inkscape:pagecheckerboard="0"
     inkscape:deskcolor="#505050"
     inkscape:document-units="px"
     inkscape:zoom="0.77416739"
     inkscape:cx="255.75864"
     inkscape:cy="255.75864"
     inkscape:window-width="1366"
     inkscape:window-height="715"
     inkscape:window-x="-8"
     inkscape:window-y="-8"
     inkscape:window-maximized="1"
     inkscape:current-layer="layer1" /><defs
     id="defs1" /><g
     inkscape:label="Layer 1"
     inkscape:groupmode="layer"
     id="layer1"
     transform="matrix(0.99805069,0,0,1,8.0642293e-7,22.192022)"><g
       id="g6"
       transform="matrix(0.4766329,0,0,0.4766329,-8.0799805e-7,-34.908589)"
       inkscape:label="Monitor"><g
         id="g2"
         inkscape:label="Frame &amp; Display"
         style="display:inline">
	<path
   style="fill:#999999"
   d="m 512,346.68 v 42.64 c 0,5.92 -4.72,10.72 -10.48,10.72 H 10.48 C 4.72,400.04 0,395.24 0,389.4 v -42.64 h 512 z"
   id="path2-2" />
	<polygon
   style="fill:#999999"
   points="320,400.04 330.64,474.68 181.36,474.68 192,400.04 "
   id="polygon2" />
<polygon
   style="fill:#666666"
   points="189.52,417.4 192,400.04 320,400.04 326.64,446.6 "
   id="polygon3" /><rect
   x="144"
   y="474.67999"
   style="fill:#666666"
   width="224"
   height="10.64"
   id="rect3-9" /><path
   style="display:inline;opacity:0.2;fill:#ffffff;enable-background:new"
   d="M 460.72,26.68 H 10.48 C 4.72,26.68 0,31.24 0,36.68 v 179.44 z"
   id="path13" /><path
   d="m 0,346.68 v -310 c 0,-5.44 4.72,-10 10.48,-10 H 501.6 c 5.68,0 10.4,4.56 10.4,10 v 310 z"
   id="path1-6" /></g><g
         id="g5"
         inkscape:label="URLBar">
	<circle
   style="fill:#ffffff"
   cx="149.28"
   cy="69.400002"
   r="10.72"
   id="circle3" />
	<circle
   style="fill:#ffffff"
   cx="106.64"
   cy="69.400002"
   r="10.72"
   id="circle4" />
	<circle
   style="fill:#ffffff"
   cx="64"
   cy="69.400002"
   r="10.72"
   id="circle5" />
<rect
   x="181.28"
   y="64.040001"
   style="fill:#999999"
   width="277.35999"
   height="10.64"
   id="rect5-0" /></g><g
         id="g7"
         style="display:inline"
         inkscape:label="Content">
	<rect
   x="274.36322"
   y="279.19879"
   style="display:inline;fill:#ffffff;stroke-width:2.28397"
   width="66.517639"
   height="51.200001"
   id="rect18" /><rect
   x="74.640862"
   y="280.99997"
   style="display:inline;fill:#ffffff;stroke-width:2.28682"
   width="66.68364"
   height="51.200001"
   id="rect11" /><rect
   x="174.00459"
   y="280.99997"
   style="display:inline;fill:#ffffff;stroke-width:2.28682"
   width="66.68364"
   height="51.200001"
   id="rect12" /><rect
   x="74.640862"
   y="190.11995"
   style="fill:#ff6600;stroke-width:1.244"
   width="363.11224"
   height="21.360001"
   id="rect6-0" />
	
<rect
   x="74.640862"
   y="232.75995"
   style="fill:#bcbcbc;stroke-width:1.244"
   width="363.11224"
   height="10.64"
   id="rect8-0" /><rect
   x="74.640862"
   y="254.11996"
   style="fill:#bcbcbc;stroke-width:1.244"
   width="363.11224"
   height="10.64"
   id="rect10-3" /><rect
   x="74.639999"
   y="103.07999"
   style="display:inline;fill:#20a2ce;fill-opacity:1;stroke-width:1.754"
   width="363.51999"
   height="112.64"
   id="rect7-2" /><rect
   x="371.64313"
   y="279.19879"
   style="display:inline;fill:#ffffff;stroke-width:2.28397"
   width="66.517639"
   height="51.200001"
   id="rect19" /></g></g><g
       id="g38"
       transform="matrix(0.4766329,0,0,0.4766329,268.89111,-43.88566)"
       inkscape:label="Laptop"><g
         id="g28"
         inkscape:label="Frame"
         transform="rotate(90,266.63923,245.51358)">
	
	
<path
   d="M 383.92,512 H 128.08 c -8.48,0 -15.36,-6.88 -15.36,-15.36 V 15.68 c 0,-8.48 6.88,-15.36 15.36,-15.36 h 255.84 c 8.48,0 15.36,6.88 15.36,15.36 v 480.96 c 0,8.48 -6.88,15.36 -15.36,15.36 z"
   id="path26"
   style="display:inline" /><rect
   x="128.08"
   y="41.279999"
   width="255.84"
   height="409.35999"
   id="rect27"
   style="display:inline" /><path
   style="display:inline;opacity:0.2;fill:#ffffff;enable-background:new"
   d="M 399.28,56.48 V 15.36 C 399.28,6.88 392.4,0 383.92,0 H 128.08 c -8.48,0 -15.36,6.88 -15.36,15.36 v 163.92 z"
   id="path27" /><path
   style="fill:#999999"
   d="m 286.72,481.28 h -61.44 c -2.8,0 -5.12,-2.32 -5.12,-5.12 v 0 c 0,-2.8 2.32,-5.12 5.12,-5.12 h 61.44 c 2.8,0 5.12,2.32 5.12,5.12 v 0 c 0,2.8 -2.32,5.12 -5.12,5.12 z"
   id="path28" /></g><g
         id="g30"
         inkscape:label="URLBar">
	<circle
   style="fill:#ffffff"
   cx="162.16"
   cy="124.08"
   r="8.5600004"
   id="circle28" />
	<circle
   style="fill:#ffffff"
   cx="128"
   cy="124.08"
   r="8.5600004"
   id="circle29" />
	<circle
   style="fill:#ffffff"
   cx="93.919998"
   cy="124.08"
   r="8.5600004"
   id="circle30" />
<rect
   x="187.75999"
   y="119.84"
   style="fill:#999999"
   width="238.96001"
   height="8.5600004"
   id="rect30" /></g><g
         id="g37"
         inkscape:label="Content"
         transform="matrix(1.1333333,0,0,1.1333328,-34.268306,-62.911954)">
	
	
	
	
	
	<rect
   x="185.33186"
   y="313.45529"
   style="fill:#ffffff;stroke-width:3.27994"
   width="61.439999"
   height="51.200001"
   id="rect31" /><rect
   x="103.41187"
   y="313.45529"
   style="fill:#ffffff;stroke-width:3.27994"
   width="61.439999"
   height="51.200001"
   id="rect32" />
	
<rect
   x="267.25186"
   y="313.45529"
   style="fill:#ffffff;stroke-width:3.27994"
   width="61.439999"
   height="51.200001"
   id="rect33" /><rect
   x="349.17184"
   y="313.45529"
   style="fill:#ffffff;stroke-width:3.27994"
   width="61.439999"
   height="51.200001"
   id="rect34" /><rect
   x="103.41187"
   y="292.97528"
   style="fill:#bcbcbc;fill-opacity:1"
   width="307.20001"
   height="8.5600004"
   id="rect35" /><rect
   x="103.41187"
   y="277.6153"
   style="fill:#bcbcbc;fill-opacity:1"
   width="307.20001"
   height="8.5600004"
   id="rect36" /><rect
   x="103.41187"
   y="183.84"
   style="fill:#20a2ce;fill-opacity:1;stroke-width:3.87336"
   width="307.20001"
   height="84.479996"
   id="rect37" /></g></g><g
       id="g1"
       inkscape:label="Smartphone"
       transform="matrix(0.25548162,0,0,0.25548162,191.40583,70.541675)"><g
         id="g3"
         inkscape:label="Frame">
	
	
<path
   d="M 383.92,512 H 128.08 c -8.48,0 -15.36,-6.88 -15.36,-15.36 V 15.68 c 0,-8.48 6.88,-15.36 15.36,-15.36 h 255.84 c 8.48,0 15.36,6.88 15.36,15.36 v 480.96 c 0,8.48 -6.88,15.36 -15.36,15.36 z"
   id="path1"
   style="display:inline" /><rect
   x="128.08"
   y="41.279999"
   width="255.84"
   height="409.35999"
   id="rect1"
   style="display:inline" /><path
   style="display:inline;opacity:0.2;fill:#ffffff;enable-background:new"
   d="M 399.28,56.48 V 15.36 C 399.28,6.88 392.4,0 383.92,0 H 128.08 c -8.48,0 -15.36,6.88 -15.36,15.36 v 163.92 z"
   id="path10" /><path
   style="fill:#999999"
   d="m 286.4,25.92 h -61.44 c -2.8,0 -5.12,-2.32 -5.12,-5.12 v 0 c 0,-2.8 2.32,-5.12 5.12,-5.12 h 61.44 c 2.8,0 5.12,2.32 5.12,5.12 v 0 c 0,2.8 -2.24,5.12 -5.12,5.12 z"
   id="path2" /><path
   style="fill:#999999"
   d="m 286.72,481.28 h -61.44 c -2.8,0 -5.12,-2.32 -5.12,-5.12 v 0 c 0,-2.8 2.32,-5.12 5.12,-5.12 h 61.44 c 2.8,0 5.12,2.32 5.12,5.12 v 0 c 0,2.8 -2.32,5.12 -5.12,5.12 z"
   id="path3" /></g><g
         id="g4"
         inkscape:label="Content"
         transform="translate(-1.0015966)">
	
	
<rect
   x="274.37415"
   y="298.0224"
   style="fill:#ffffff;stroke-width:1.2958"
   width="85.968002"
   height="51.200001"
   id="rect20" /><rect
   x="153.84"
   y="298.22778"
   style="fill:#ffffff;stroke-width:1.2958"
   width="85.968002"
   height="51.200001"
   id="rect9" /><rect
   x="153.84"
   y="128.95198"
   style="display:inline;fill:#20a2ce;fill-opacity:1;stroke-width:1.2646"
   width="206.3232"
   height="103.1616"
   id="rect7-2-1" /><rect
   x="153.84"
   y="246.44156"
   style="display:inline;fill:#bcbcbc;stroke-width:0.973284"
   width="206.3232"
   height="11.462399"
   id="rect8-0-1" /><rect
   x="153.84"
   y="268.17477"
   style="display:inline;fill:#bcbcbc;stroke-width:0.973284"
   width="206.3232"
   height="11.462399"
   id="rect10-3-9" /><rect
   x="274.37415"
   y="366.79678"
   style="fill:#ffffff;stroke-width:1.2958"
   width="85.968002"
   height="51.200001"
   id="rect21" /><rect
   x="153.84"
   y="367.00217"
   style="fill:#ffffff;stroke-width:1.2958"
   width="85.968002"
   height="51.200001"
   id="rect22" /></g><g
         id="g3-3-9"
         inkscape:label="URLBar"
         transform="matrix(1.119375,0,0,1.119375,57.288553,-60.535802)">
	
	
	
<rect
   x="85.360001"
   y="119.84"
   style="fill:#999999;stroke-width:0.891387"
   width="158.71991"
   height="10.24"
   id="rect3-3-5" /><g
   id="g17"
   inkscape:label="MenuToggler"><rect
     x="249.19983"
     y="130.07997"
     style="fill:#999999;stroke-width:0.143196"
     width="20.48"
     height="2.0480001"
     id="rect15" /><rect
     x="249.19983"
     y="124.95998"
     style="fill:#999999;stroke-width:0.143196"
     width="20.48"
     height="2.0480001"
     id="rect17" /><rect
     x="249.19983"
     y="119.84"
     style="fill:#999999;stroke-width:0.143196"
     width="20.48"
     height="2.0480001"
     id="rect16" /></g></g></g></g></svg>
