<?xml version="1.0" encoding="UTF-8" standalone="no"?>
<!-- Created with Inkscape (http://www.inkscape.org/) -->

<svg
   width="512"
   height="332.79999"
   viewBox="0 0 512 332.79999"
   version="1.1"
   id="svg1"
   xml:space="preserve"
   inkscape:version="1.3.2 (091e20e, 2023-11-25, custom)"
   sodipodi:docname="Security Following OWASP Top 10 Guide.svg"
   inkscape:export-filename="..\Dist\Security Following OWASP Top 10 Guide.svg"
   inkscape:export-xdpi="96"
   inkscape:export-ydpi="96"
   xmlns:inkscape="http://www.inkscape.org/namespaces/inkscape"
   xmlns:sodipodi="http://sodipodi.sourceforge.net/DTD/sodipodi-0.dtd"
   xmlns="http://www.w3.org/2000/svg"
   xmlns:svg="http://www.w3.org/2000/svg"><sodipodi:namedview
     id="namedview1"
     pagecolor="#505050"
     bordercolor="#eeeeee"
     borderopacity="1"
     inkscape:showpageshadow="0"
     inkscape:pageopacity="0"
     inkscape:pagecheckerboard="0"
     inkscape:deskcolor="#505050"
     inkscape:document-units="mm"
     inkscape:zoom="0.36286468"
     inkscape:cx="405.1097"
     inkscape:cy="636.60096"
     inkscape:window-width="1366"
     inkscape:window-height="715"
     inkscape:window-x="-8"
     inkscape:window-y="-8"
     inkscape:window-maximized="1"
     inkscape:current-layer="svg1" /><defs
     id="defs1"><style
       id="style1">.cls-1{fill:#fff;stroke-width:0px;}</style></defs><g
     id="g9"
     inkscape:label="Security Following OWASP Top 10 Guide"
     transform="matrix(3.7795276,0,0,3.7795276,-140.8504,-394.85985)"><g
       id="g6"
       transform="matrix(0.26458333,0,0,0.26458333,37.266667,80.766667)"
       inkscape:label="Laptop"><path
         d="M 469.12,396.8 V 102.4 c 0,-7.04 -5.76,-12.8 -12.8,-12.8 H 55.36 c -7.04,0 -12.8,5.76 -12.8,12.8 v 294.4 c 0,0 427.68,0 426.56,0 z"
         id="path1" /><rect
         y="396.79999"
         style="fill:#d8d8d8"
         width="512"
         height="8.5600004"
         id="rect1"
         x="0" /><polygon
         style="fill:#999999"
         points="0,405.36 512,405.36 486.4,422.4 25.6,422.4 "
         id="polygon1" /><g
         id="g10">
	<rect
   x="375.35999"
   y="337.44"
   style="fill:#ff6600"
   width="34.16"
   height="8.5600004"
   id="rect5" />
	<rect
   x="320.72"
   y="337.44"
   style="fill:#ff6600"
   width="34.16"
   height="8.5600004"
   id="rect6" />
	<rect
   x="266.07999"
   y="337.44"
   style="fill:#ff6600"
   width="34.16"
   height="8.5600004"
   id="rect7" />
	<rect
   x="211.52"
   y="337.44"
   style="fill:#ff6600"
   width="34.16"
   height="8.5600004"
   id="rect8" />
	<rect
   x="156.88"
   y="337.44"
   style="fill:#ff6600"
   width="34.16"
   height="8.5600004"
   id="rect9" />
	<rect
   x="102.24"
   y="337.44"
   style="fill:#ff6600"
   width="34.16"
   height="8.5600004"
   id="rect10" />
</g><g
         id="g12">
	<circle
   style="fill:#ffffff"
   cx="162"
   cy="124.08"
   r="8.5600004"
   id="circle10" />
	<circle
   style="fill:#ffffff"
   cx="127.92"
   cy="124.08"
   r="8.5600004"
   id="circle11" />
	<circle
   style="fill:#ffffff"
   cx="93.760002"
   cy="124.08"
   r="8.5600004"
   id="circle12" />
</g><rect
         x="187.60001"
         y="119.84"
         style="fill:#999999"
         width="238.96001"
         height="8.5600004"
         id="rect12" /><path
         style="opacity:0.2;fill:#ffffff;enable-background:new"
         d="M 340.48,89.6 H 54.32 c -7.04,0 -12.8,5.76 -12.8,12.8 v 138.8 z"
         id="path12" /></g><g
       id="security"
       inkscape:label="Shield"
       style="fill:#20a2ce;fill-opacity:1"
       transform="matrix(0.7999995,0,0,0.7999995,65.000125,96.49996)">



<path
   id="path3"
   style="display:inline;fill:#20a2ce;fill-opacity:1"
   d="m 42.800663,30.498039 c 10.326763,14.111249 10.118081,13.826227 29.127167,39.801644 1.966682,-4.092477 3.07206,-8.650925 3.07206,-13.42466 V 35.680908 L 71.39481,32.626991 49.999874,29.375068 Z m 0,0 -14.319283,2.234054 -3.481521,2.949127 v 21.193803 c 0,14.799985 10.50003,27.600072 25.000015,30.500069 C 59.82289,85.410489 67.797219,78.895089 71.92783,70.299683 52.918744,44.324266 53.127426,44.609288 42.800663,30.498039 Z m -17.800804,5.183181 3.481521,-2.949127 -3.481521,0.54303 z m 46.394951,-3.054229 3.60508,3.053917 v -2.505883 z"
   transform="translate(-1.2500008e-6)" /></g><g
       id="g4"
       inkscape:label="SSHLock"
       transform="matrix(0.41666668,0,0,0.41666668,95,137.7917)"
       style="display:inline;fill:#ffffff;fill-opacity:1"><path
         d="M 32,21.9 Z"
         id="path3-9"
         style="fill:#ffffff;fill-opacity:1" /><path
         d="M 40,18 H 16 v -5 a 7,7 0 0 1 7,-7 h 2 a 7.1,7.1 0 0 1 5,2.1 2,2 0 0 0 2.2,0.5 h 0.1 A 1.9,1.9 0 0 0 32.9,5.5 10.9,10.9 0 0 0 25,2 H 23 A 11,11 0 0 0 12,13 v 5 H 8 a 2,2 0 0 0 -2,2 v 24 a 2,2 0 0 0 2,2 h 32 a 2,2 0 0 0 2,-2 V 20 A 2,2 0 0 0 40,18 Z M 38,42 H 10 V 22 h 28 z"
         id="path4-6"
         style="fill:#ffffff;fill-opacity:1" /><path
         d="M 15,40 A 2,2 0 0 1 13.7,36.5 L 19,32 13.7,27.5 a 2,2 0 0 1 2.6,-3 l 7,6 a 2,2 0 0 1 0,3 l -7,6 A 1.9,1.9 0 0 1 15,40 Z"
         id="path5-2"
         transform="translate(1.1999999e-6)"
         style="display:inline;fill:#ffffff;fill-opacity:1" /><path
         d="m 33,38 h -6 a 2,2 0 0 1 0,-4 h 6 a 2,2 0 0 1 0,4 z"
         id="path6-6"
         transform="translate(1.1999999e-6)"
         style="fill:#ffffff;fill-opacity:1" /></g><g
       id="g7"
       transform="matrix(0.01385329,0,0,0.01385329,122.38727,145.41301)"
       inkscape:label="OWASP"><path
         class="cls-1"
         d="m 402.86,188.29 c -118.24,0 -214.1,95.86 -214.1,214.1 0,118.24 95.86,214.1 214.1,214.1 118.24,0 214.1,-95.86 214.1,-214.1 0,-118.24 -95.86,-214.1 -214.1,-214.1 z m 0,395.22 c -100.03,0 -181.12,-81.09 -181.12,-181.12 0,-100.03 81.09,-181.12 181.12,-181.12 100.03,0 181.12,81.09 181.12,181.12 0,100.03 -81.09,181.12 -181.12,181.12 z"
         id="path1-8" /><path
         class="cls-1"
         d="m 1624.02,540.79 c -5.64,5.66 -12.45,8.49 -20.45,8.49 -8,0 -14.8,-2.83 -20.41,-8.49 -5.58,-5.64 -8.38,-12.47 -8.38,-20.49 0,-8.02 2.82,-14.73 8.45,-20.37 5.61,-5.61 12.39,-8.42 20.33,-8.42 7.94,0 14.81,2.8 20.45,8.42 5.64,5.61 8.45,12.4 8.45,20.37 0,7.97 -2.82,14.82 -8.45,20.49 z m -37.98,-38.03 c -4.82,4.85 -7.24,10.71 -7.24,17.58 0,6.87 2.4,12.82 7.2,17.7 4.82,4.88 10.68,7.31 17.58,7.31 6.9,0 12.75,-2.44 17.58,-7.31 4.82,-4.88 7.24,-10.77 7.24,-17.7 0,-6.93 -2.41,-12.73 -7.24,-17.58 -4.85,-4.88 -10.71,-7.31 -17.58,-7.31 -6.87,0 -12.69,2.44 -17.54,7.31 z m 16.99,1.61 c 3.93,0 6.82,0.38 8.65,1.14 3.28,1.36 4.92,4.04 4.92,8.03 0,2.83 -1.03,4.92 -3.09,6.26 -1.1,0.71 -2.62,1.22 -4.58,1.53 2.48,0.39 4.29,1.43 5.44,3.1 1.15,1.68 1.72,3.31 1.72,4.91 v 2.32 c 0,0.73 0.03,1.52 0.08,2.36 0.05,0.84 0.14,1.39 0.28,1.65 l 0.2,0.39 h -5.23 c -0.03,-0.1 -0.05,-0.21 -0.08,-0.31 -0.03,-0.1 -0.05,-0.22 -0.08,-0.35 l -0.12,-1.02 v -2.51 c 0,-3.66 -1,-6.08 -2.99,-7.25 -1.18,-0.68 -3.25,-1.02 -6.21,-1.02 h -4.4 v 12.47 h -5.58 v -31.69 h 11.09 z m 6.03,4.99 c -1.41,-0.79 -3.66,-1.18 -6.76,-1.18 h -4.77 v 11.48 h 5.05 c 2.37,0 4.14,-0.24 5.32,-0.71 2.18,-0.87 3.27,-2.52 3.27,-4.95 0,-2.31 -0.7,-3.85 -2.11,-4.64 z"
         id="path2" /><path
         class="cls-1"
         d="m 1065.8,302.22 h -22.4 c 0,0 0.03,93.76 0.05,137.08 0,5.12 -0.33,10.19 -1.55,15.18 -1.64,6.73 -5.32,12.01 -11.94,14.34 -16.06,5.65 -32.29,5.65 -48.36,0.03 -6.62,-2.31 -10.33,-7.59 -12.09,-14.26 -1.43,-5.42 -1.71,-10.97 -1.71,-16.56 0.01,-42.09 0.09,-135.81 0.09,-135.81 h -22.47 c 0,0 0.01,92.79 -0.02,134.91 0,4.87 -0.14,9.74 -0.98,14.56 -1.75,10.07 -7.56,16.52 -17.5,18.9 -12.95,3.1 -26,3.05 -38.95,0 -8.88,-2.09 -14.73,-7.56 -16.84,-16.6 -0.53,-2.25 -0.8,-4.57 -0.98,-6.88 -0.24,-3 -0.36,-6.02 -0.36,-9.03 -0.02,-44.08 0.04,-135.87 0.04,-135.87 h -22.62 c 0,0 0.06,93.85 0.11,136.51 0,4.98 0.17,9.99 0.69,14.93 1.72,16.26 9.73,27.68 25.77,32.8 12,3.83 24.38,4.67 36.78,4.26 18.11,-0.6 34.69,-5.12 46.07,-21.44 6.85,10.06 16.07,15.94 27.24,18.77 17.72,4.49 35.48,3.53 53,-0.83 11.64,-2.9 20.92,-9.38 25.44,-21.16 2.82,-7.36 3.48,-15.1 3.49,-22.9 0.03,-37.35 0,-140.94 0,-140.94 z"
         id="path3-4" /><path
         class="cls-1"
         d="m 1246.79,350.36 c 0,-5.59 -0.43,-11.11 -1.36,-16.61 -1.9,-11.28 -7.76,-19.66 -18.02,-24.88 -9.47,-4.82 -19.69,-6.66 -30.13,-7.62 -20.18,-1.86 -40.29,-1.71 -60.24,2.35 -22.38,4.55 -33.3,16.58 -33.91,39.27 -0.62,23.29 -0.29,69.93 -0.37,69.93 0,22.21 0.03,44.43 -0.05,66.64 h -0.01 c 0,0 0,9.54 0,9.54 h 22.68 v -8.54 c -0.12,-19.33 -0.15,-57.16 -0.15,-57.16 v -3.57 c 0,0 99.17,0 99.17,0 l 0.02,4 c 0,0 -0.06,37.16 -0.12,55.74 v 0 c 0,0 0,9.54 0,9.54 h 22.55 c 0,0 -0.09,-95.25 -0.06,-138.6 z m -22.38,49.89 h -99.16 v -3.23 c 0,0 0.12,-33.15 0.16,-49.72 0,-3.25 0.34,-6.46 1.1,-9.64 2.57,-10.8 10.6,-15.24 20.44,-17.29 16.75,-3.48 33.64,-3 50.52,-1.06 3.2,0.37 6.34,1.35 9.46,2.23 11.19,3.16 16.41,11.04 17.1,22.23 0.32,5.08 0.3,10.19 0.31,15.29 0.04,12.63 0.08,37.9 0.08,37.9 v 3.29 z"
         id="path4" /><path
         class="cls-1"
         d="m 1396.9,392.65 c -16.63,-4.35 -33.78,-5.87 -50.64,-8.96 -8.32,-1.52 -16.73,-2.6 -25.01,-4.3 -11.17,-2.3 -16.64,-9.23 -16.77,-20.65 -0.05,-4.17 -0.05,-8.35 0.11,-12.53 0.51,-14.17 5.88,-22.03 19.6,-25 21.07,-4.57 42.37,-4.95 63.34,1.13 9.65,2.8 14.38,9.91 15.54,19.7 0.65,5.51 0.52,15.26 0.52,15.26 H 1426 v -5.6 c -0.05,-3.55 0.05,-6.88 -0.26,-10.41 -1.83,-20.83 -10.19,-30.83 -30.29,-36.51 -13.54,-3.83 -27.47,-3.99 -41.43,-4.37 -14.32,0.37 -28.68,0.69 -42.67,4.71 -16.43,4.73 -26.64,14.75 -28.55,32.34 -0.84,7.77 -0.62,15.52 -0.64,23.29 -0.03,17.49 9.61,30.68 26.28,36.03 12.21,3.92 25.02,4.78 37.55,7.03 12.09,2.17 24.29,3.7 36.36,5.96 10.23,1.91 18.47,6.81 20.55,17.99 1.49,8.02 1.06,16.2 -0.24,24.25 -1.41,8.69 -6.5,14.73 -14.93,17.09 -21.79,6.09 -43.79,5.83 -65.67,0.56 -10.39,-2.5 -15.86,-9.76 -17.07,-20.39 -0.32,-2.83 -0.44,-5.67 -0.48,-8.51 h 0.02 c 0,0 0,-9.61 0,-9.61 v -5.31 h -22.43 v 12.45 0 c -0.04,6.82 0.07,13.63 1.49,20.37 2.19,10.46 7.74,18.45 17.38,23.44 5.4,2.8 11.09,4.67 17.03,5.88 16.49,3.35 33.19,3.57 49.89,2.74 10.29,-0.51 20.56,-1.65 30.48,-4.88 14.24,-4.63 23.83,-13.34 26.48,-28.73 1.53,-8.89 1.17,-17.8 1.18,-26.72 0.02,-19.46 -10.19,-32.79 -29.1,-37.74 z"
         id="path5" /><path
         class="cls-1"
         d="m 810.9,341.16 c -0.78,-13.15 -5.29,-24.42 -17.48,-31.29 -5.29,-2.99 -10.97,-4.98 -16.89,-6.25 -15.29,-3.28 -30.81,-3.89 -46.36,-3.34 -12.04,0.42 -24.09,1.28 -35.69,4.97 -10.77,3.42 -19.88,9 -24.62,19.86 -3.22,7.37 -3.86,15.26 -3.88,23.15 -0.08,31.43 -0.04,62.86 -0.03,94.29 0,1.51 0.01,3.02 0.12,4.52 0.73,10.31 2.3,20.34 10.02,28.16 6.79,6.88 15.42,10.26 24.59,12.12 22.84,4.64 45.85,4.36 68.86,1.35 6.67,-0.87 13.16,-2.65 19.4,-5.29 14.78,-6.25 21.09,-18.1 21.97,-33.38 1.05,-18.19 0.13,-36.41 0.51,-54.61 -0.38,-18.09 0.55,-36.19 -0.51,-54.26 z m -22.14,98.96 c 0,1.62 -0.03,3.25 -0.11,4.87 -0.68,13.92 -5.59,21.39 -19.12,24.65 -21.22,5.11 -42.74,5.16 -63.97,-0.57 -10.36,-2.8 -15.65,-10.2 -16.64,-20.73 -0.35,-3.69 -0.59,-7.4 -0.6,-11.1 -0.05,-28.06 -0.06,-56.11 0,-84.17 0,-3.93 0.3,-7.88 0.76,-11.78 1.39,-11.95 9.02,-18.24 20.05,-20.55 19.63,-4.1 39.4,-4.16 59.02,0.04 13.54,2.9 20.08,10.76 20.4,24.75 0.38,16.69 0.22,79.76 0.21,94.6 z"
         id="path6" /><path
         class="cls-1"
         d="m 1604.9,340.89 c -1.33,-13.42 -7.92,-24.03 -20.1,-30.71 -10.81,-5.92 -22.63,-7.57 -34.62,-7.69 -27.03,-0.27 -88.17,-0.27 -88.17,-0.27 l -0.03,186.73 h 22.57 l -0.12,-53.83 c 0,0 42.03,0.12 61.4,0.04 8.59,-0.04 17.11,-0.74 25.54,-2.62 19.28,-4.29 31.93,-17.58 33.65,-37.12 1.59,-18.13 1.68,-36.4 -0.12,-54.52 z m -22.8,53.51 c -1.78,11.16 -8.94,17.96 -19.68,21.12 -5.51,1.62 -11.17,1.99 -16.86,2 -19.25,0.03 -61.13,0.08 -61.13,0.08 v -97.42 c 0,0 43.84,0.06 64.25,0.06 5.97,0 11.8,0.89 17.36,3.1 9.87,3.94 15.47,11.56 16.51,21.84 1.65,16.38 2.15,32.87 -0.45,49.21 z"
         id="path7" /><path
         class="cls-1"
         d="m 531.55,321.7 c -4.15,-2.63 -8.44,-4.98 -13.13,-6.57 -2.55,-0.86 -5.03,-0.75 -7.56,0.06 -4.12,1.33 -8.06,3.05 -11.94,4.94 -0.61,0.11 -0.79,-0.46 -1.17,-0.72 -3.4,-5.78 -7.99,-10.39 -13.74,-13.82 -1.05,-0.63 -1.09,-1.11 -0.6,-2.13 1.84,-3.81 3.53,-7.69 4.74,-11.76 0.66,-2.23 0.68,-4.42 -0.03,-6.65 -1.52,-4.79 -3.95,-9.14 -6.61,-13.36 -0.47,-0.75 -1.12,-1.19 -1.99,-0.66 -0.84,0.52 -0.79,1.29 -0.33,2.07 0.16,0.27 0.34,0.54 0.5,0.81 2.22,3.66 4.3,7.38 5.68,11.46 0.69,2.03 0.71,4 0.05,6.04 -1.22,3.77 -2.82,7.39 -4.49,10.97 -0.1,0.21 -0.16,0.45 -0.45,0.52 -0.35,-0.37 -0.31,-0.87 -0.43,-1.32 -1.04,-3.74 -4.39,-6.41 -8.26,-6.55 -3.9,-0.14 -6.96,2.07 -8.28,5.99 -0.14,0.42 -0.24,0.82 -0.74,0.99 -4.17,1.42 -7.05,4.25 -8.94,8.17 -0.63,0.57 -0.72,1.39 -0.93,2.14 -1.25,4.42 -0.73,8.76 0.61,13.06 0.34,1.08 0.73,2.13 1.11,3.22 -0.57,0.18 -0.95,-0.09 -1.35,-0.21 -4.61,-1.34 -9.26,-1.66 -13.91,-0.39 -1.3,0.36 -2.34,0.49 -3.19,-0.7 -2.5,-3.8 -4.99,-7.61 -7.52,-11.39 -0.46,-0.68 -0.52,-1.33 -0.41,-2.12 0.77,-5.65 1.4,-11.31 1.39,-17.02 0,-0.91 0,-1.82 -0.24,-2.71 -0.08,-0.26 -0.14,-0.59 -0.45,-0.64 -0.4,-0.07 -0.56,0.28 -0.65,0.57 -0.3,0.9 -0.62,1.8 -0.82,2.72 -1.27,5.85 -1.95,11.78 -2.71,17.71 -0.19,1.48 0.02,2.78 0.57,4.14 1.42,3.48 2.75,7 4.11,10.5 0.13,0.35 0.41,0.69 0.21,1.16 -0.16,-0.04 -0.31,-0.06 -0.44,-0.12 -2.85,-1.47 -5.68,-2.97 -8.54,-4.42 -0.87,-0.44 -1.36,-1.07 -1.64,-2.03 -1.67,-5.7 -3.36,-11.39 -5.4,-16.96 -0.58,-1.6 -1.17,-3.2 -2.01,-4.68 -0.21,-0.36 -0.38,-0.93 -0.89,-0.82 -0.55,0.12 -0.39,0.72 -0.37,1.11 0.07,1.06 0.16,2.13 0.34,3.18 1,5.9 2.54,11.67 3.9,17.49 0.63,2.69 1.39,5.18 3.93,6.69 0.06,0.04 0.1,0.12 0.15,0.18 -0.08,0.34 0.99,0.73 -0.06,1.02 -2.52,-0.82 -5.03,-1.67 -7.56,-2.46 -0.71,-0.22 -1.24,-0.61 -1.72,-1.17 -3.42,-4.01 -6.93,-7.93 -10.81,-11.5 -0.79,-0.72 -1.59,-1.43 -2.53,-1.95 -0.27,-0.15 -0.57,-0.38 -0.87,-0.12 -0.3,0.26 -0.12,0.59 0,0.88 0.43,1.03 1.05,1.95 1.69,2.85 3.24,4.6 6.89,8.88 10.52,13.16 0.37,0.44 0.84,0.7 1.35,0.94 5.25,2.51 10.5,5.02 15.73,7.55 0.49,0.24 1.43,0.32 0.91,1.27 -0.44,0.8 -0.14,2.24 -1.94,1.85 -4.06,-0.88 -8.15,-1.59 -12.24,-2.35 -19.34,-3.59 -38.75,-6.71 -58.26,-9.21 -21.58,-2.76 -43.25,-4.07 -65.01,-4 -10.53,0.03 -21.05,0.3 -31.5,1.79 -1.84,0.26 -3.68,0.6 -5.42,1.26 -1.26,0.48 -1.53,1.21 -0.99,2.43 0.39,0.88 1,1.61 1.65,2.31 1.84,1.98 3.95,3.65 6.11,5.26 7.08,5.24 14.6,9.77 22.29,14.03 11.79,6.55 23.72,12.66 37.23,15.05 8.51,1.5 16.97,3.11 25.66,2.87 3.89,-0.11 7.74,-0.51 11.32,-2.27 3.18,-1.55 6.07,-3.57 9.06,-5.42 4.37,-2.69 8.99,-4.72 14.16,-5.08 8.41,-0.59 16.79,-1.46 25.18,-2.28 6.81,-0.66 13.62,-1.38 20.43,-2.07 0.57,-0.06 1.08,-0.15 1.25,0.65 0.71,3.37 2.12,6.45 3.85,9.41 0,0.37 0.22,0.65 0.4,0.94 0.4,0.65 -0.19,0.44 -0.45,0.52 -5.53,-3.14 -11.24,-3.02 -17.05,-0.91 -4.35,1.59 -8.28,3.95 -12.02,6.62 -8.12,5.79 -15.26,12.69 -22.45,19.55 -8.47,8.08 -16.35,16.64 -23.01,26.31 -13.93,20.24 -25.15,41.94 -35.18,64.3 v 0 c 0,0 -2.29,5.08 -2.29,5.08 l 4.18,-1.84 v 0 c 14.5,-6.41 28.67,-13.45 42.45,-21.3 11.56,-6.59 22.88,-13.58 33.12,-22.13 11.05,-9.23 20.8,-19.79 30.19,-30.68 4.24,-4.93 8.09,-10.16 10.84,-16.1 3.18,-6.89 4.09,-13.78 -0.19,-20.61 l 0.47,-0.24 c 3.25,2.08 6.64,3.84 10.44,4.66 1.03,0.22 1.18,0.66 1.08,1.63 -1.41,13.46 -2.82,26.92 -3.98,40.4 -0.3,3.5 -0.38,7.03 -1.42,10.44 -1.36,4.5 -3.73,8.48 -6.38,12.28 -3.87,5.54 -5.5,11.63 -5.41,18.34 0.12,8.56 1.41,16.94 3.26,25.26 1.12,5.06 2.17,10.14 4.24,14.93 5.96,13.77 13.28,26.79 21.61,39.25 2.25,3.36 4.62,6.62 7.46,9.52 0.91,0.93 1.86,1.85 3.09,2.37 1.16,0.5 1.9,0.19 2.35,-0.99 0.28,-0.74 0.5,-1.5 0.67,-2.27 1.02,-4.53 1.43,-9.15 1.71,-13.77 1.46,-23.44 0.54,-46.83 -1.57,-70.19 -1.31,-14.47 -3.46,-28.83 -5.69,-43.18 -2.24,-14.39 -4.79,-28.72 -7.6,-43.01 -0.34,-1.72 0.98,-1.45 1.75,-1.89 1,-0.57 1.1,0.35 1.37,0.89 2.51,5.2 5,10.41 7.5,15.62 0.24,0.5 0.46,1 0.9,1.37 4.5,3.81 8.97,7.66 13.85,10.99 0.62,0.42 1.27,0.8 1.94,1.14 0.36,0.18 0.83,0.56 1.18,0.11 0.32,-0.41 -0.05,-0.84 -0.3,-1.17 -0.67,-0.88 -1.35,-1.76 -2.1,-2.57 -2.76,-3 -5.68,-5.87 -8.87,-8.4 -2.32,-1.83 -3.89,-3.96 -4.46,-6.84 -0.05,-1.17 -0.67,-2.18 -0.92,-3.29 -0.18,-0.79 -0.77,-1.49 -0.53,-2.37 0.93,1.02 1.89,2.02 2.77,3.08 0.58,0.71 1.26,1.11 2.15,1.34 5.44,1.41 10.88,2.8 16.39,3.94 2.48,0.51 4.95,1.08 7.5,1.13 0.34,0 0.8,0.08 0.92,-0.34 0.12,-0.42 -0.31,-0.6 -0.6,-0.78 -0.97,-0.62 -2.04,-1.05 -3.11,-1.47 -6.2,-2.41 -12.59,-4.26 -18.96,-6.15 -0.82,-0.24 -1.39,-0.67 -1.77,-1.42 -1.5,-2.92 -3.02,-5.83 -4.53,-8.75 -0.06,-0.12 -0.06,-0.28 -0.1,-0.44 0.53,-0.12 0.9,0.17 1.28,0.32 3.84,1.48 7.67,2.97 11.5,4.48 0.61,0.24 1.2,0.35 1.85,0.27 6.24,-0.76 12.5,-1.48 18.66,-2.78 1.01,-0.21 2.01,-0.47 2.95,-0.89 0.28,-0.13 0.64,-0.26 0.56,-0.66 -0.06,-0.3 -0.38,-0.37 -0.65,-0.44 -1.13,-0.26 -2.28,-0.25 -3.43,-0.23 -5.51,0.06 -10.98,0.65 -16.43,1.39 -0.7,0.09 -1.28,0.05 -1.9,-0.36 -4.03,-2.66 -8.07,-5.3 -12.13,-7.91 -0.72,-0.46 -0.92,-0.87 -0.64,-1.72 1.3,-3.96 1.37,-8 0.66,-12.08 -0.28,-1.58 -0.83,-3.1 -1.21,-4.66 0.54,-0.18 0.86,0.12 1.21,0.26 3.98,1.61 8.08,2.55 12.4,2.12 5.8,-0.58 10.32,-3.22 12.86,-8.62 0.65,-1.37 1.36,-2.21 2.83,-2.78 3.32,-1.31 5.17,-4.76 4.82,-8.34 -0.37,-3.72 -3.17,-6.9 -6.84,-7.8 -0.35,-0.09 -0.8,0.05 -1.05,-0.46 0.25,-0.14 0.47,-0.3 0.71,-0.41 3.08,-1.45 6.24,-2.71 9.4,-3.98 3.23,-1.3 6.29,-1.05 9.42,0.31 3.57,1.55 6.97,3.4 10.26,5.46 0.77,0.48 1.53,0.59 2.08,-0.24 0.54,-0.81 0.22,-1.52 -0.56,-2.01 z"
         id="path8" /><text
         xml:space="preserve"
         style="font-style:italic;font-variant:normal;font-weight:normal;font-stretch:normal;font-size:3.52778px;font-family:Consolas;-inkscape-font-specification:'Consolas Italic';fill:#ffffff;fill-opacity:1;stroke:#ffffff;stroke-width:0.264583;stroke-dasharray:none"
         x="146.68318"
         y="151.87138"
         id="text7"
         transform="matrix(72.18502,0,0,72.18502,-8834.5274,-10496.641)"><tspan
           sodipodi:role="line"
           id="tspan7"
           style="font-style:italic;font-variant:normal;font-weight:normal;font-stretch:normal;font-size:3.52778px;font-family:Consolas;-inkscape-font-specification:'Consolas Italic';stroke-width:0.264583;stroke-dasharray:none"
           x="146.68318"
           y="151.87138">Top 10</tspan></text><text
         xml:space="preserve"
         style="font-style:italic;font-variant:normal;font-weight:normal;font-stretch:normal;font-size:4.23333px;font-family:Consolas;-inkscape-font-specification:'Consolas Italic';fill:#ffffff;fill-opacity:1;stroke:#ffffff;stroke-width:0.264583;stroke-dasharray:none"
         x="126.5751"
         y="159.27962"
         id="text8"
         transform="matrix(72.18502,0,0,72.18502,-8834.5274,-10496.641)"><tspan
           sodipodi:role="line"
           id="tspan8"
           style="font-style:italic;font-variant:normal;font-weight:normal;font-stretch:normal;font-size:4.23333px;font-family:Consolas;-inkscape-font-specification:'Consolas Italic';stroke-width:0.264583"
           x="126.5751"
           y="159.27962">As Reference</tspan></text></g><g
       id="g8"
       transform="matrix(0.83333333,0,0,0.83333333,94.86819,121.25825)"
       inkscape:label="Infinity"><path
         d="M 18.6,6.62 A 5.38,5.38 0 1 1 14.78,15.8 L 12,13.34 9.17,15.85 A 5.33,5.33 0 0 1 5.4,17.38 5.38,5.38 0 1 1 9.22,8.2 L 12,10.66 14.83,8.15 A 5.33,5.33 0 0 1 18.6,6.62 M 7.8,14.39 10.5,12 7.84,9.65 a 3.39,3.39 0 1 0 -2.44,5.73 3.36,3.36 0 0 0 2.4,-1 M 16.2,9.6 13.5,12 16.16,14.35 A 3.39,3.39 0 1 0 18.6,8.62 3.36,3.36 0 0 0 16.2,9.61 Z"
         id="path1-3"
         style="fill:#ffffff;fill-opacity:1" /></g></g></svg>
