<?xml version="1.0" encoding="UTF-8" standalone="no"?>
<!-- Created with Inkscape (http://www.inkscape.org/) -->

<svg
   width="359.33298"
   height="505.39868"
   viewBox="0 0 359.33298 505.39868"
   version="1.1"
   id="svg1"
   xml:space="preserve"
   inkscape:version="1.3.2 (091e20e, 2023-11-25, custom)"
   sodipodi:docname="Support Disable with Good Accessibility App.svg"
   inkscape:export-filename="Support Disable with Good Accessibility App.svg"
   inkscape:export-xdpi="300"
   inkscape:export-ydpi="300"
   xmlns:inkscape="http://www.inkscape.org/namespaces/inkscape"
   xmlns:sodipodi="http://sodipodi.sourceforge.net/DTD/sodipodi-0.dtd"
   xmlns="http://www.w3.org/2000/svg"
   xmlns:svg="http://www.w3.org/2000/svg"><sodipodi:namedview
     id="namedview1"
     pagecolor="#505050"
     bordercolor="#eeeeee"
     borderopacity="1"
     inkscape:showpageshadow="0"
     inkscape:pageopacity="0"
     inkscape:pagecheckerboard="0"
     inkscape:deskcolor="#505050"
     inkscape:document-units="px"
     inkscape:zoom="0.7285156"
     inkscape:cx="183.93566"
     inkscape:cy="186.68097"
     inkscape:window-width="1366"
     inkscape:window-height="715"
     inkscape:window-x="-8"
     inkscape:window-y="-8"
     inkscape:window-maximized="1"
     inkscape:current-layer="g11" /><defs
     id="defs1" /><g
     id="g11"
     inkscape:label="Support Disable with Good Accessibility App"
     transform="matrix(1.219166,0,0,1.2191437,-132.61864,-60.902936)"
     style="stroke-width:0.82024"><rect
       style="display:none;opacity:1;fill:#000000;fill-opacity:1;stroke:#000000;stroke-width:0.0820241"
       id="rect7"
       width="40"
       height="400"
       x="471.95001"
       y="56"
       rx="16.404659"
       ry="16.404955"
       inkscape:label="heightGuide" /><g
       id="g8"
       inkscape:label="StickMan"
       transform="translate(4.6418289,1.6404957)"
       style="stroke-width:0.82024"><rect
         style="fill:#20a2ce;fill-opacity:1;stroke:#000000;stroke-width:0.0820238"
         id="rect1"
         width="120"
         height="196.66489"
         x="183.62161"
         y="143.13754"
         rx="16.404659"
         ry="16.404955" /><rect
         style="fill:#20a2ce;fill-opacity:1;stroke:#000000;stroke-width:0.0820241"
         id="rect3"
         width="140"
         height="40"
         x="-229.01767"
         y="-112.80515"
         rx="16.404919"
         ry="16.404694"
         transform="matrix(-0.35178153,-0.93608213,-0.93608213,0.35178153,0,0)" /><rect
         style="opacity:1;fill:#20a2ce;fill-opacity:1;stroke:#000000;stroke-width:0.0820371"
         id="rect4"
         width="118.12496"
         height="39.968834"
         x="361.12372"
         y="-260.25809"
         rx="16.397694"
         ry="16.400967"
         transform="matrix(0.0869166,0.99621559,-0.99808499,0.06185758,0,0)" /><rect
         style="opacity:1;fill:#20a2ce;fill-opacity:1;stroke:#000000;stroke-width:0.0820248"
         id="rect5"
         width="116.67262"
         height="39.997284"
         x="340.17999"
         y="-249.49367"
         rx="16.404249"
         ry="16.404316"
         transform="matrix(-0.02529177,0.99968011,-0.99984572,-0.01756499,0,0)" /><rect
         style="opacity:1;fill:#20a2ce;fill-opacity:1;stroke:#000000;stroke-width:0.0820241"
         id="rect6"
         width="80"
         height="80"
         x="203.62161"
         y="57.038788"
         rx="40"
         ry="40" /><rect
         style="fill:#20a2ce;fill-opacity:1;stroke:#000000;stroke-width:0.0820241"
         id="rect8"
         width="140"
         height="40"
         x="293.09363"
         y="174.46613"
         rx="16.404881"
         ry="16.404734"
         transform="matrix(0.50844588,0.86109395,0.86109395,-0.50844588,0,0)" /><text
         xml:space="preserve"
         style="font-size:8px;font-family:Consolas;-inkscape-font-specification:Consolas;opacity:1;fill:#ffffff;fill-opacity:1;stroke:#000000;stroke-width:0.0820241"
         x="197.79552"
         y="195.49814"
         id="text9"><tspan
           sodipodi:role="line"
           id="tspan9"
           x="197.79552"
           y="195.49814"
           style="font-style:normal;font-variant:normal;font-weight:bold;font-stretch:normal;font-size:8px;font-family:Consolas;-inkscape-font-specification:'Consolas Bold';fill:#ffffff;fill-opacity:1;stroke-width:0.0820241">(☞ﾟヮﾟ)☞  ☜(ﾟヮﾟ☜)</tspan></text></g><g
       id="g25"
       transform="matrix(1.6709072,0.02259233,-0.02259233,1.6709072,228.38367,203.30323)"
       inkscape:label="Infinity"
       style="fill:#20a2ce;fill-opacity:1;stroke-width:0.82024"><path
         d="M 18.6,6.62 A 5.38,5.38 0 1 1 14.78,15.8 L 12,13.34 9.17,15.85 A 5.33,5.33 0 0 1 5.4,17.38 5.38,5.38 0 1 1 9.22,8.2 L 12,10.66 14.83,8.15 A 5.33,5.33 0 0 1 18.6,6.62 M 7.8,14.39 10.5,12 7.84,9.65 a 3.39,3.39 0 1 0 -2.44,5.73 3.36,3.36 0 0 0 2.4,-1 M 16.2,9.6 13.5,12 16.16,14.35 A 3.39,3.39 0 1 0 18.6,8.62 3.36,3.36 0 0 0 16.2,9.61 Z"
         id="path24"
         style="fill:#ffffff;fill-opacity:1;stroke-width:0.82024" /></g></g></svg>
